<?xml version="1.0" standalone="no"?>
<!DOCTYPE svg PUBLIC "-//W3C//DTD SVG 20010904//EN"
 "http://www.w3.org/TR/2001/REC-SVG-20010904/DTD/svg10.dtd">
<svg version="1.0" xmlns="http://www.w3.org/2000/svg"
 width="397.000000pt" height="397.000000pt" viewBox="0 0 397.000000 397.000000"
 preserveAspectRatio="xMidYMid meet">
<metadata>
Created by potrace 1.11, written by Peter Selinger 2001-2013
</metadata>
<g transform="translate(0.000000,397.000000) scale(0.100000,-0.100000)"
fill="#000000" stroke="none">
<path d="M1931 3924 c-25 -31 -23 -19 -25 -164 -2 -129 11 -97 -143 -355 -36
-60 -73 -123 -83 -140 -9 -16 -49 -83 -88 -149 -40 -65 -72 -120 -72 -122 0
-2 -16 -28 -35 -58 -19 -30 -35 -57 -35 -59 0 -3 -29 -54 -65 -113 -81 -134
-69 -115 -158 -264 -40 -69 -118 -199 -172 -290 -54 -91 -141 -237 -193 -325
-52 -88 -103 -173 -113 -190 -10 -16 -22 -37 -26 -45 -4 -7 -24 -43 -46 -79
-83 -136 -89 -152 -73 -199 14 -40 21 -42 261 -57 50 -3 124 -8 165 -10 41 -3
111 -7 155 -10 44 -3 112 -7 150 -10 98 -7 201 -13 340 -21 66 -4 134 -8 150
-9 17 -2 42 -3 56 -4 l25 -1 1 -151 1 -150 -126 6 c-70 3 -161 8 -202 10 -41
2 -140 7 -220 10 -80 3 -179 8 -220 10 -41 2 -133 7 -205 10 -256 11 -277 15
-685 126 -153 42 -170 44 -200 20 -19 -15 -24 -29 -24 -63 -1 -64 31 -208 54
-250 6 -10 10 -23 10 -28 0 -12 39 -101 72 -165 73 -139 217 -309 348 -410
105 -81 299 -170 410 -189 19 -3 49 -9 65 -13 17 -4 458 -8 980 -10 956 -2
987 -1 1123 32 12 3 30 7 41 9 34 8 176 69 226 99 176 102 348 283 447 467 35
66 97 209 103 239 2 9 11 43 20 76 8 33 18 78 21 100 4 22 8 42 10 44 8 9 -27
58 -50 71 -28 14 -30 14 -226 -46 -150 -47 -293 -82 -356 -88 -59 -6 -108 -9
-359 -21 -66 -3 -158 -8 -205 -10 -47 -3 -132 -7 -190 -10 -58 -3 -143 -7
-190 -10 -47 -2 -136 -7 -197 -10 l-113 -6 0 65 c0 36 3 67 8 67 28 5 165 14
387 24 70 3 267 14 375 20 41 2 125 7 185 10 251 13 281 15 306 26 26 10 49
46 49 76 0 9 -24 57 -53 107 -85 144 -688 1168 -706 1198 -9 14 -33 55 -53 90
-20 34 -140 239 -267 453 l-231 390 0 203 c0 219 -7 253 -52 266 -43 11 -67 6
-87 -20z m-25 -1555 l1 -951 -144 7 c-79 3 -153 8 -166 10 -12 2 -78 6 -147
10 -69 3 -152 7 -185 10 -33 2 -100 7 -150 10 -249 14 -290 17 -293 20 -3 3
617 1059 667 1135 8 14 21 34 27 45 17 30 387 655 388 655 1 0 1 -428 2 -951z
m212 704 c66 -115 232 -397 369 -628 458 -775 663 -1128 659 -1133 -4 -3 -25
-6 -49 -7 -23 -2 -98 -6 -167 -9 -69 -4 -161 -9 -205 -11 -44 -3 -116 -7 -160
-9 -81 -6 -190 -12 -387 -21 l-107 -6 -1 946 c0 520 2 945 4 945 2 0 22 -30
44 -67z m-1740 -2158 c86 -24 171 -47 187 -50 136 -24 181 -28 445 -40 105 -4
280 -12 440 -20 47 -2 153 -7 235 -12 244 -12 449 -9 795 12 30 1 123 6 205
10 438 20 650 32 700 41 80 14 303 73 353 94 28 12 28 8 -4 -82 -56 -156 -151
-306 -259 -413 -85 -84 -90 -88 -185 -147 -117 -73 -228 -111 -358 -125 -86
-9 -1806 -9 -1892 0 -36 4 -80 11 -97 16 -18 5 -33 7 -33 4 0 -3 -6 -1 -12 4
-7 6 -26 13 -43 17 -16 4 -61 23 -100 43 -200 100 -362 270 -464 483 -46 98
-86 210 -75 210 3 0 75 -20 162 -45z"/>
<path d="M1445 2101 c-127 -33 -204 -127 -210 -255 -6 -112 51 -208 153 -258
38 -19 63 -23 132 -22 74 0 92 4 138 29 53 29 62 44 39 63 -10 9 -23 5 -53
-16 -35 -24 -48 -27 -124 -27 -75 0 -90 3 -125 26 -71 46 -105 107 -107 188
-3 136 96 231 238 231 52 0 120 -26 142 -53 13 -15 15 -15 30 -1 51 52 -142
124 -253 95z"/>
<path d="M2195 1845 l0 -275 27 0 28 0 2 221 3 222 50 -64 c27 -35 54 -69 60
-75 5 -7 62 -77 125 -158 97 -123 119 -145 140 -143 l24 2 1 273 0 272 -27 0
c-20 0 -28 -5 -29 -17 0 -10 -1 -109 -1 -220 0 -112 -3 -203 -7 -202 -3 0 -53
61 -111 135 -58 74 -112 143 -120 152 -9 9 -29 35 -45 57 -54 72 -78 95 -99
95 -21 0 -21 -2 -21 -275z"/>
</g>
</svg>
